<svg width="1476" height="1018" viewBox="0 0 1476 1018" fill="none" xmlns="http://www.w3.org/2000/svg">
<path d="M396.311 407.139C607.396 405.374 649.115 300.586 773.65 281.914C900.675 262.868 1014 293.35 1060.56 394.149M1429.18 469.631C1597.92 315.234 1224.94 139.527 1224.94 0M23.9535 587.455C-75.6739 801.138 219.949 845.169 81.0931 1190M1345.68 505.331L1349.96 488.423L1351.9 481.706L1348.23 483.011L1338.16 486.336L1337.61 483.668L1353.95 478.277L1355.32 480.938L1350.28 501.247L1349.24 504.441L1352.91 503.113L1362.47 499.958L1363.02 502.569L1346.98 507.864L1345.68 505.331ZM1226.78 501.974L1239.8 489.394L1245.18 484.509L1241.3 483.926L1230.79 482.102L1231.79 479.547L1248.84 482.507L1248.56 485.44L1233 500.599L1230.34 502.865L1234.24 503.433L1244.22 505.165L1243.25 507.67L1226.5 504.763L1226.78 501.974ZM1104.93 444.663L1123.24 440.335L1130.62 438.811L1127.67 436.429L1119.8 429.763L1122.13 428.084L1134.88 438.895L1132.95 441.242L1111.01 446.526L1107.44 447.151L1110.42 449.532L1117.89 455.859L1115.62 457.51L1103.09 446.894L1104.93 444.663ZM279.871 416.911L291.538 403.254L296.391 397.921L292.468 397.679L281.811 396.779L282.543 394.149L299.827 395.61L299.845 398.554L285.925 415L283.507 417.487L287.451 417.713L297.565 418.568L296.858 421.146L279.884 419.711L279.871 416.911ZM142.736 431.323L140.679 414.067L140.089 407.139L137.1 409.485L128.795 415.684L127.317 413.334L140.786 403.28L143.04 405.374L145.609 426.07L145.774 429.401L148.766 427.029L156.648 421.146L158.105 423.444L144.877 433.317L142.736 431.323ZM65.9989 526.265L55.4617 511.854L51.4397 505.967L49.9766 509.319L45.7498 518.348L43.2528 516.895L50.1079 502.252L53.1627 503.146L65.8911 520.387L67.7195 523.268L69.1724 519.893L73.1841 511.323L75.6351 512.738L68.9029 527.12L65.9989 526.265Z" stroke="black" stroke-width="5"/>
</svg>
